<mxfile host="Electron" agent="Mozilla/5.0 (Windows NT 10.0; Win64; x64) AppleWebKit/537.36 (KHTML, like Gecko) draw.io/24.7.8 Chrome/128.0.6613.36 Electron/32.0.1 Safari/537.36" version="24.7.8">
  <diagram id="imM8MLSXZUczfaayI6pl" name="Page-1">
    <mxGraphModel dx="2709" dy="729" grid="1" gridSize="10" guides="1" tooltips="1" connect="1" arrows="1" fold="1" page="0" pageScale="1" pageWidth="850" pageHeight="1100" background="none" math="0" shadow="0">
      <root>
        <mxCell id="0" />
        <mxCell id="1" parent="0" />
        <mxCell id="node14" value="&lt;p style=&quot;margin:0px;margin-top:4px;text-align:center;&quot;&gt;&lt;b&gt;API&lt;/b&gt;&lt;/p&gt;&lt;hr size=&quot;1&quot;/&gt;&lt;p style=&quot;margin:0 0 0 4px;line-height:1.6;&quot;&gt;+ API(): &lt;/p&gt;&lt;hr size=&quot;1&quot;/&gt;&lt;p style=&quot;margin:0 0 0 4px;line-height:1.6;&quot;&gt;+ getBooksFromJson(String): ArrayList&amp;lt;Book&amp;gt;&lt;br/&gt;+ getHttpResponse(String): String&lt;br/&gt;- convertToUpdatedPreviewLink(String, String): String&lt;/p&gt;" style="verticalAlign=top;align=left;overflow=fill;fontSize=14;fontFamily=Helvetica;html=1;rounded=0;shadow=0;comic=0;labelBackgroundColor=none;strokeWidth=1;" parent="1" vertex="1">
          <mxGeometry x="195.5" y="2060" width="373" height="150" as="geometry" />
        </mxCell>
        <mxCell id="node3" value="&lt;p style=&quot;margin:0px;margin-top:4px;text-align:center;&quot;&gt;&lt;b&gt;Book&lt;/b&gt;&lt;/p&gt;&lt;hr size=&quot;1&quot;/&gt;&lt;p style=&quot;margin:0 0 0 4px;line-height:1.6;&quot;&gt;+ Book(int, String, String, String, boolean, String, String): &lt;br/&gt;+ Book(): &lt;br/&gt;+ Book(String, String, String, String): &lt;/p&gt;&lt;hr size=&quot;1&quot;/&gt;&lt;p style=&quot;margin:0 0 0 4px;line-height:1.6;&quot;&gt;- title: String&lt;br/&gt;- author: String&lt;br/&gt;- description: String&lt;br/&gt;- holdRequests: ArrayList&amp;lt;HoldRequest&amp;gt;&lt;br/&gt;~ currentIdNumber: int&lt;br/&gt;- imageLink: String&lt;br/&gt;- loan: Loan&lt;br/&gt;- isbn: String&lt;br/&gt;- previewLink: String&lt;/p&gt;&lt;hr size=&quot;1&quot;/&gt;&lt;p style=&quot;margin:0 0 0 4px;line-height:1.6;&quot;&gt;+ placeBookOnHold(Borrower): String&lt;br/&gt;+ returnBook(Borrower, Loan, Librarian): String&lt;br/&gt;+ attach(Observer): void&lt;br/&gt;+ logicalChangeBookInfo(String, String, String): void&lt;br/&gt;+ detach(Observer): void&lt;br/&gt;+ toString(): String&lt;br/&gt;+ generateQRCodeImage(String, int, int): Image&lt;br/&gt;+ printHoldRequests(): void&lt;br/&gt;+ serviceHoldRequest(HoldRequest): void&lt;br/&gt;+ changeBookInfo(): void&lt;br/&gt;+ printInfo(): void&lt;br/&gt;+ notifyObservers(String): void&lt;br/&gt;+ makeHoldRequest(Borrower): String&lt;br/&gt;+ addHoldRequest(HoldRequest): void&lt;br/&gt;+ issueBook(Borrower, Librarian): String&lt;br/&gt;+ hashCode(): int&lt;br/&gt;+ deepCopy(): Book&lt;br/&gt;+ equals(Object): boolean&lt;/p&gt;&lt;hr size=&quot;1&quot;/&gt;&lt;p style=&quot;margin:0 0 0 4px;line-height:1.6;&quot;&gt; currentIdNumber: int&lt;br/&gt; description: String&lt;br/&gt; title: String&lt;br/&gt; imageLink: String&lt;br/&gt; author: String&lt;br/&gt; IDCount: int&lt;br/&gt; loan: Loan&lt;br/&gt; isbn: String&lt;br/&gt; issuedStatus: boolean&lt;br/&gt; holdRequests: ArrayList&amp;lt;HoldRequest&amp;gt;&lt;br/&gt; previewLink: String&lt;br/&gt; ID: int&lt;/p&gt;" style="verticalAlign=top;align=left;overflow=fill;fontSize=14;fontFamily=Helvetica;html=1;rounded=0;shadow=0;comic=0;labelBackgroundColor=none;strokeWidth=1;" parent="1" vertex="1">
          <mxGeometry x="670" y="1142" width="398" height="1059" as="geometry" />
        </mxCell>
        <mxCell id="node11" value="&lt;p style=&quot;margin:0px;margin-top:4px;text-align:center;&quot;&gt;&lt;b&gt;Borrower&lt;/b&gt;&lt;/p&gt;&lt;hr size=&quot;1&quot;/&gt;&lt;p style=&quot;margin:0 0 0 4px;line-height:1.6;&quot;&gt;+ Borrower(int, String, String, String, int, String): &lt;/p&gt;&lt;hr size=&quot;1&quot;/&gt;&lt;p style=&quot;margin:0 0 0 4px;line-height:1.6;&quot;&gt;- onHoldBooks: ArrayList&amp;lt;HoldRequest&amp;gt;&lt;br/&gt;- borrowedBooks: ArrayList&amp;lt;Loan&amp;gt;&lt;/p&gt;&lt;hr size=&quot;1&quot;/&gt;&lt;p style=&quot;margin:0 0 0 4px;line-height:1.6;&quot;&gt;- updateBorrowerAddress(String): void&lt;br/&gt;+ hashCode(): int&lt;br/&gt;+ printOnHoldBooks(): void&lt;br/&gt;+ addHoldRequest(HoldRequest): void&lt;br/&gt;+ printBorrowedBooks(): void&lt;br/&gt;- updateBorrowerName(String): void&lt;br/&gt;+ removeBorrowedBook(Loan): void&lt;br/&gt;- updateBorrowerPhoneNumber(String): void&lt;br/&gt;+ updateBorrowerInfo(): void&lt;br/&gt;+ removeHoldRequest(HoldRequest): void&lt;br/&gt;+ addBorrowedBook(Loan): void&lt;br/&gt;+ update(String): void&lt;br/&gt;+ printInfo(): void&lt;br/&gt;- updateBorrowerEmail(String): void&lt;br/&gt;+ equals(Object): boolean&lt;/p&gt;&lt;hr size=&quot;1&quot;/&gt;&lt;p style=&quot;margin:0 0 0 4px;line-height:1.6;&quot;&gt; borrowedBooks: ArrayList&amp;lt;Loan&amp;gt;&lt;br/&gt; onHoldBooks: ArrayList&amp;lt;HoldRequest&amp;gt;&lt;/p&gt;" style="verticalAlign=top;align=left;overflow=fill;fontSize=14;fontFamily=Helvetica;html=1;rounded=0;shadow=0;comic=0;labelBackgroundColor=none;strokeWidth=1;" parent="1" vertex="1">
          <mxGeometry x="210" y="1470" width="344" height="531" as="geometry" />
        </mxCell>
        <mxCell id="node12" value="&lt;p style=&quot;margin:0px;margin-top:4px;text-align:center;&quot;&gt;&lt;b&gt;HoldRequest&lt;/b&gt;&lt;/p&gt;&lt;hr size=&quot;1&quot;/&gt;&lt;p style=&quot;margin:0 0 0 4px;line-height:1.6;&quot;&gt;+ HoldRequest(Borrower, Book, Date): &lt;/p&gt;&lt;hr size=&quot;1&quot;/&gt;&lt;p style=&quot;margin:0 0 0 4px;line-height:1.6;&quot;&gt;~ borrower: Borrower&lt;br/&gt;~ requestDate: Date&lt;br/&gt;~ book: Book&lt;/p&gt;&lt;hr size=&quot;1&quot;/&gt;&lt;p style=&quot;margin:0 0 0 4px;line-height:1.6;&quot;&gt;+ print(): void&lt;/p&gt;&lt;hr size=&quot;1&quot;/&gt;&lt;p style=&quot;margin:0 0 0 4px;line-height:1.6;&quot;&gt; book: Book&lt;br/&gt; borrower: Borrower&lt;br/&gt; requestDate: Date&lt;/p&gt;" style="verticalAlign=top;align=left;overflow=fill;fontSize=14;fontFamily=Helvetica;html=1;rounded=0;shadow=0;comic=0;labelBackgroundColor=none;strokeWidth=1;" parent="1" vertex="1">
          <mxGeometry x="1095.5" y="790" width="277" height="243" as="geometry" />
        </mxCell>
        <mxCell id="node6" value="&lt;p style=&quot;margin:0px;margin-top:4px;text-align:center;&quot;&gt;&lt;b&gt;Librarian&lt;/b&gt;&lt;/p&gt;&lt;hr size=&quot;1&quot;/&gt;&lt;p style=&quot;margin:0 0 0 4px;line-height:1.6;&quot;&gt;+ Librarian(int, String, String, String, int, String, double): &lt;/p&gt;&lt;hr size=&quot;1&quot;/&gt;&lt;p style=&quot;margin:0 0 0 4px;line-height:1.6;&quot;&gt;# salary: double&lt;/p&gt;&lt;hr size=&quot;1&quot;/&gt;&lt;p style=&quot;margin:0 0 0 4px;line-height:1.6;&quot;&gt;+ update(String): void&lt;br/&gt;+ equals(Object): boolean&lt;br/&gt;+ printInfo(): void&lt;br/&gt;+ hashCode(): int&lt;/p&gt;&lt;hr size=&quot;1&quot;/&gt;&lt;p style=&quot;margin:0 0 0 4px;line-height:1.6;&quot;&gt; salary: double&lt;/p&gt;" style="verticalAlign=top;align=left;overflow=fill;fontSize=14;fontFamily=Helvetica;html=1;rounded=0;shadow=0;comic=0;labelBackgroundColor=none;strokeWidth=1;" parent="1" vertex="1">
          <mxGeometry x="-370" y="1480" width="391" height="219" as="geometry" />
        </mxCell>
        <mxCell id="node9" value="&lt;p style=&quot;margin:0px;margin-top:4px;text-align:center;&quot;&gt;&lt;b&gt;Library&lt;/b&gt;&lt;/p&gt;&lt;hr size=&quot;1&quot;/&gt;&lt;p style=&quot;margin:0 0 0 4px;line-height:1.6;&quot;&gt;- Library(): &lt;/p&gt;&lt;hr size=&quot;1&quot;/&gt;&lt;p style=&quot;margin:0 0 0 4px;line-height:1.6;&quot;&gt;- borrowers: ArrayList&amp;lt;Borrower&amp;gt;&lt;br/&gt;- loans: ArrayList&amp;lt;Loan&amp;gt;&lt;br/&gt;- librarians: ArrayList&amp;lt;Librarian&amp;gt;&lt;br/&gt;- user: Person&lt;/p&gt;&lt;hr size=&quot;1&quot;/&gt;&lt;p style=&quot;margin:0 0 0 4px;line-height:1.6;&quot;&gt;+ fillItBack(Connection): void&lt;br/&gt;+ findBorrowerById(int): Borrower&lt;br/&gt;+ populateLibrary(Connection): void&lt;br/&gt;+ findBorrower(): Borrower&lt;br/&gt;+ Login(): Person&lt;br/&gt;+ logicalLogin(String, String): Person&lt;br/&gt;+ createBorrower(): void&lt;br/&gt;+ addBookinLibrary(Book): boolean&lt;br/&gt;+ setBooksInLibrary(int, Book): void&lt;br/&gt;+ searchForBookByID(int): Book&lt;br/&gt;+ createBook(String, String, String): void&lt;br/&gt;+ logicalRemoveBook(ArrayList&amp;lt;HoldRequest&amp;gt;, Book): boolean&lt;br/&gt;+ addLibrarian(Librarian): boolean&lt;br/&gt;+ viewAllBooks(): void&lt;br/&gt;+ createLibrarian(): void&lt;br/&gt;+ removeBookfromLibrary(Book): String&lt;br/&gt;+ addLoan(Loan): void&lt;br/&gt;+ findBorrowerByName(String): Borrower&lt;br/&gt;+ viewHistory(): void&lt;br/&gt;+ addBorrower(Borrower): boolean&lt;br/&gt;+ makeConnection(): Connection&lt;br/&gt;+ searchForBooks(): ArrayList&amp;lt;Book&amp;gt;&lt;/p&gt;&lt;hr size=&quot;1&quot;/&gt;&lt;p style=&quot;margin:0 0 0 4px;line-height:1.6;&quot;&gt; loans: ArrayList&amp;lt;Loan&amp;gt;&lt;br/&gt; librarians: ArrayList&amp;lt;Librarian&amp;gt;&lt;br/&gt; instance: Library&lt;br/&gt; borrowers: ArrayList&amp;lt;Borrower&amp;gt;&lt;br/&gt; user: Person&lt;br/&gt; books: ArrayList&amp;lt;Book&amp;gt;&lt;/p&gt;" style="verticalAlign=top;align=left;overflow=fill;fontSize=14;fontFamily=Helvetica;html=1;rounded=0;shadow=0;comic=0;labelBackgroundColor=none;strokeWidth=1;" parent="1" vertex="1">
          <mxGeometry x="1140" y="1142" width="428" height="843" as="geometry" />
        </mxCell>
        <mxCell id="node8" value="&lt;p style=&quot;margin:0px;margin-top:4px;text-align:center;&quot;&gt;&lt;b&gt;Loan&lt;/b&gt;&lt;/p&gt;&lt;hr size=&quot;1&quot;/&gt;&lt;p style=&quot;margin:0 0 0 4px;line-height:1.6;&quot;&gt;+ Loan(Borrower, Book, Librarian, Librarian, Date, Date): &lt;/p&gt;&lt;hr size=&quot;1&quot;/&gt;&lt;p style=&quot;margin:0 0 0 4px;line-height:1.6;&quot;&gt;- issuer: Librarian&lt;br/&gt;- issuedDate: Date&lt;br/&gt;- receiver: Librarian&lt;br/&gt;- borrower: Borrower&lt;br/&gt;- book: Book&lt;/p&gt;&lt;hr size=&quot;1&quot;/&gt;&lt;p style=&quot;margin:0 0 0 4px;line-height:1.6;&quot;&gt; returnedDate: Date&lt;br/&gt; returnDate: Date&lt;br/&gt; issuer: Librarian&lt;br/&gt; book: Book&lt;br/&gt; receiver: Librarian&lt;br/&gt; borrower: Borrower&lt;br/&gt; issuedDate: Date&lt;/p&gt;" style="verticalAlign=top;align=left;overflow=fill;fontSize=14;fontFamily=Helvetica;html=1;rounded=0;shadow=0;comic=0;labelBackgroundColor=none;strokeWidth=1;" parent="1" vertex="1">
          <mxGeometry x="-370" y="1790" width="392" height="359" as="geometry" />
        </mxCell>
        <mxCell id="node2" value="&lt;p style=&quot;margin:0px;margin-top:4px;text-align:center;&quot;&gt;&lt;b&gt;Main&lt;/b&gt;&lt;/p&gt;&lt;hr size=&quot;1&quot;/&gt;&lt;p style=&quot;margin:0 0 0 4px;line-height:1.6;&quot;&gt;+ Main(): &lt;/p&gt;&lt;hr size=&quot;1&quot;/&gt;&lt;p style=&quot;margin:0 0 0 4px;line-height:1.6;&quot;&gt;+ main(String[]): void&lt;br/&gt;+ start(Stage): void&lt;/p&gt;" style="verticalAlign=top;align=left;overflow=fill;fontSize=14;fontFamily=Helvetica;html=1;rounded=0;shadow=0;comic=0;labelBackgroundColor=none;strokeWidth=1;" parent="1" vertex="1">
          <mxGeometry x="1150" y="600" width="168" height="124" as="geometry" />
        </mxCell>
        <mxCell id="node1" value="&lt;p style=&quot;margin:0px;margin-top:4px;text-align:center;&quot;&gt;&lt;i&gt;&amp;lt;&amp;lt;interface&amp;gt;&amp;gt;&lt;/i&gt;&lt;br/&gt;&lt;b&gt;Observer&lt;/b&gt;&lt;/p&gt;&lt;hr size=&quot;1&quot;/&gt;&lt;p style=&quot;margin:0 0 0 4px;line-height:1.6;&quot;&gt;+ update(String): void&lt;/p&gt;" style="verticalAlign=top;align=left;overflow=fill;fontSize=14;fontFamily=Helvetica;html=1;rounded=0;shadow=0;comic=0;labelBackgroundColor=none;strokeWidth=1;" parent="1" vertex="1">
          <mxGeometry x="398.5" y="600" width="170" height="79" as="geometry" />
        </mxCell>
        <mxCell id="node5" value="&lt;p style=&quot;margin:0px;margin-top:4px;text-align:center;&quot;&gt;&lt;b&gt;OnTerminal&lt;/b&gt;&lt;/p&gt;&lt;hr size=&quot;1&quot;/&gt;&lt;p style=&quot;margin:0 0 0 4px;line-height:1.6;&quot;&gt;+ OnTerminal(): &lt;/p&gt;&lt;hr size=&quot;1&quot;/&gt;&lt;p style=&quot;margin:0 0 0 4px;line-height:1.6;&quot;&gt;- scanner: Scanner&lt;br/&gt;- onTest: Boolean&lt;/p&gt;&lt;hr size=&quot;1&quot;/&gt;&lt;p style=&quot;margin:0 0 0 4px;line-height:1.6;&quot;&gt;- runLibrarianPortal(Person): void&lt;br/&gt;- handleBorrowerInfoUpdate(Library): void&lt;br/&gt;- runBorrowerPortal(Person): void&lt;br/&gt;- handleBookReturn(Library, Person): void&lt;br/&gt;+ initialize(Library): Connection?&lt;br/&gt;- displayBorrowerMenu(): void&lt;br/&gt;+ clearScreen(): void&lt;br/&gt;+ takeInput(int, int): int&lt;br/&gt;+ cleanup(Connection): void&lt;br/&gt;- handleBookRemoval(Library): void&lt;br/&gt;+ main(String[]): void&lt;br/&gt;- handlePersonalInfo(Library, Person): void&lt;br/&gt;- displayMainMenu(): void&lt;br/&gt;- handleLogin(Library): void&lt;br/&gt;- handleHoldRequest(Library, Person): void&lt;br/&gt;- handleBookIssue(Library, Person): void&lt;br/&gt;- handleAccountCreation(Library): void&lt;br/&gt;- displayLibrarianMenu(): void&lt;br/&gt;+ allFunctionalities(Person, int): void&lt;br/&gt;- handleBookInfoChange(Library): void&lt;br/&gt;- handleHoldRequestQueue(Library): void&lt;br/&gt;- runMainLoop(Library): void&lt;br/&gt;- handleBookCreation(Library): void&lt;br/&gt;- handleNotifications(Person): void&lt;/p&gt;&lt;hr size=&quot;1&quot;/&gt;&lt;p style=&quot;margin:0 0 0 4px;line-height:1.6;&quot;&gt; scanner: Scanner&lt;br/&gt; onTest: boolean&lt;/p&gt;" style="verticalAlign=top;align=left;overflow=fill;fontSize=14;fontFamily=Helvetica;html=1;rounded=0;shadow=0;comic=0;labelBackgroundColor=none;strokeWidth=1;" parent="1" vertex="1">
          <mxGeometry x="-530" y="600" width="305" height="747" as="geometry" />
        </mxCell>
        <mxCell id="node0" value="&lt;p style=&quot;margin:0px;margin-top:4px;text-align:center;&quot;&gt;&lt;b&gt;Person&lt;/b&gt;&lt;/p&gt;&lt;hr size=&quot;1&quot;/&gt;&lt;p style=&quot;margin:0 0 0 4px;line-height:1.6;&quot;&gt;+ Person(int, String, String, String, int, String): &lt;/p&gt;&lt;hr size=&quot;1&quot;/&gt;&lt;p style=&quot;margin:0 0 0 4px;line-height:1.6;&quot;&gt;# email: String&lt;br/&gt;# phoneNo: int&lt;br/&gt;# address: String&lt;br/&gt;# name: String&lt;br/&gt;# notifications: ArrayList&amp;lt;String&amp;gt;&lt;br/&gt;# password: String&lt;/p&gt;&lt;hr size=&quot;1&quot;/&gt;&lt;p style=&quot;margin:0 0 0 4px;line-height:1.6;&quot;&gt;+ printNotifications(): void&lt;br/&gt;+ hashCode(): int&lt;br/&gt;+ addNotification(String): void&lt;br/&gt;+ equals(Object): boolean&lt;br/&gt;+ clearNotifications(): void&lt;br/&gt;+ printInfo(): void&lt;/p&gt;&lt;hr size=&quot;1&quot;/&gt;&lt;p style=&quot;margin:0 0 0 4px;line-height:1.6;&quot;&gt; name: String&lt;br/&gt; password: String&lt;br/&gt; phoneNo: int&lt;br/&gt; email: String&lt;br/&gt; notifications: ArrayList&amp;lt;String&amp;gt;&lt;br/&gt; IDCount: int&lt;br/&gt; address: String&lt;br/&gt; ID: int&lt;/p&gt;" style="verticalAlign=top;align=left;overflow=fill;fontSize=14;fontFamily=Helvetica;html=1;rounded=0;shadow=0;comic=0;labelBackgroundColor=none;strokeWidth=1;" parent="1" vertex="1">
          <mxGeometry x="-80" y="600" width="330" height="555" as="geometry" />
        </mxCell>
        <mxCell id="node16" value="&lt;p style=&quot;margin:0px;margin-top:4px;text-align:center;&quot;&gt;&lt;i&gt;&amp;lt;&amp;lt;interface&amp;gt;&amp;gt;&lt;/i&gt;&lt;br/&gt;&lt;b&gt;Subject&lt;/b&gt;&lt;/p&gt;&lt;hr size=&quot;1&quot;/&gt;&lt;p style=&quot;margin:0 0 0 4px;line-height:1.6;&quot;&gt;+ notifyObservers(String): void&lt;br/&gt;+ attach(Observer): void&lt;br/&gt;+ detach(Observer): void&lt;/p&gt;" style="verticalAlign=top;align=left;overflow=fill;fontSize=14;fontFamily=Helvetica;html=1;rounded=0;shadow=0;comic=0;labelBackgroundColor=none;strokeWidth=1;" parent="1" vertex="1">
          <mxGeometry x="755.5" y="600" width="227" height="139" as="geometry" />
        </mxCell>
        <mxCell id="edge1" value="" style="html=1;rounded=1;edgeStyle=orthogonalEdgeStyle;dashed=1;startArrow=none;endArrow=block;endSize=12;strokeColor=#008200;entryX=0.500;entryY=1.000;entryDx=0;entryDy=0;exitX=0.5;exitY=0;exitDx=0;exitDy=0;" parent="1" source="node3" target="node16" edge="1">
          <mxGeometry width="50" height="50" relative="1" as="geometry">
            <Array as="points">
              <mxPoint x="869" y="1020" />
              <mxPoint x="869" y="1020" />
            </Array>
            <mxPoint x="700" y="1080" as="sourcePoint" />
          </mxGeometry>
        </mxCell>
        <mxCell id="edge0" value="" style="html=1;rounded=1;edgeStyle=orthogonalEdgeStyle;dashed=1;startArrow=none;endArrow=block;endSize=12;strokeColor=#008200;exitX=0.750;exitY=0.000;exitDx=0;exitDy=0;entryX=0.500;entryY=1.001;entryDx=0;entryDy=0;" parent="1" source="node11" target="node1" edge="1">
          <mxGeometry width="50" height="50" relative="1" as="geometry">
            <Array as="points">
              <mxPoint x="485" y="1470" />
            </Array>
          </mxGeometry>
        </mxCell>
        <mxCell id="edge3" value="" style="html=1;rounded=1;edgeStyle=orthogonalEdgeStyle;dashed=0;startArrow=none;endArrow=block;endSize=12;strokeColor=#000082;entryX=0.500;entryY=1.000;entryDx=0;entryDy=0;" parent="1" target="node0" edge="1">
          <mxGeometry width="50" height="50" relative="1" as="geometry">
            <Array as="points">
              <mxPoint x="312" y="1240" />
              <mxPoint x="85" y="1240" />
            </Array>
            <mxPoint x="320" y="1470" as="sourcePoint" />
          </mxGeometry>
        </mxCell>
        <mxCell id="edge2" value="" style="html=1;rounded=1;edgeStyle=orthogonalEdgeStyle;dashed=1;startArrow=none;endArrow=block;endSize=12;strokeColor=#008200;exitX=0.750;exitY=0.000;exitDx=0;exitDy=0;entryX=0.500;entryY=1.001;entryDx=0;entryDy=0;" parent="1" source="node6" target="node1" edge="1">
          <mxGeometry width="50" height="50" relative="1" as="geometry">
            <Array as="points">
              <mxPoint x="-127" y="1480" />
              <mxPoint x="-127" y="1290" />
              <mxPoint x="485" y="1290" />
            </Array>
          </mxGeometry>
        </mxCell>
        <mxCell id="edge4" value="" style="html=1;rounded=1;edgeStyle=orthogonalEdgeStyle;dashed=0;startArrow=none;endArrow=block;endSize=12;strokeColor=#000082;entryX=0.5;entryY=1;entryDx=0;entryDy=0;exitX=0.5;exitY=0;exitDx=0;exitDy=0;" parent="1" source="node6" target="node0" edge="1">
          <mxGeometry width="50" height="50" relative="1" as="geometry">
            <Array as="points">
              <mxPoint x="-174" y="1240" />
              <mxPoint x="85" y="1240" />
            </Array>
            <mxPoint x="-159.8571428571422" y="2105" as="sourcePoint" />
            <mxPoint x="85" y="1430" as="targetPoint" />
          </mxGeometry>
        </mxCell>
      </root>
    </mxGraphModel>
  </diagram>
</mxfile>
